{
  "accessors": [
    {
      "bufferView": 2,
      "componentType": 5126,
      "count": 4606,
      "max": [
        1.9718217849731445,
        0.3858003318309784,
        1.0778777599334717
      ],
      "min": [
        -1.9718217849731445,
        -0.00016200542449951172,
        -3.7665724754333496
      ],
      "type": "VEC3"
    },
    {
      "bufferView": 2,
      "byteOffset": 55272,
      "componentType": 5126,
      "count": 4606,
      "max": [
        0.9998657703399658,
        1.0,
        1.0
      ],
      "min": [
        -0.998694121837616,
        -1.0,
        -1.0
      ],
      "type": "VEC3"
    },
    {
      "bufferView": 1,
      "componentType": 5126,
      "count": 4606,
      "max": [
        1.0958523750305176,
        1.4563806056976318
      ],
      "min": [
        -0.09585238248109818,
        -0.4530705213546753
      ],
      "type": "VEC2"
    },
    {
      "bufferView": 0,
      "componentType": 5125,
      "count": 22848,
      "type": "SCALAR"
    },
    {
      "bufferView": 2,
      "byteOffset": 110544,
      "componentType": 5126,
      "count": 424,
      "max": [
        0.3686857521533966,
        0.041000187397003174,
        0.16565173864364624
      ],
      "min": [
        -0.3686857223510742,
        -0.04099982976913452,
        -0.24194395542144775
      ],
      "type": "VEC3"
    },
    {
      "bufferView": 2,
      "byteOffset": 115632,
      "componentType": 5126,
      "count": 424,
      "max": [
        0.9842915534973145,
        0.9999642372131348,
        1.0
      ],
      "min": [
        -0.9842915534973145,
        -0.9999644756317139,
        -1.0
      ],
      "type": "VEC3"
    },
    {
      "bufferView": 1,
      "byteOffset": 36848,
      "componentType": 5126,
      "count": 424,
      "max": [
        0.5750068426132202,
        0.533060610294342
      ],
      "min": [
        0.4249931573867798,
        0.45119136571884155
      ],
      "type": "VEC2"
    },
    {
      "bufferView": 0,
      "byteOffset": 91392,
      "componentType": 5125,
      "count": 1728,
      "type": "SCALAR"
    },
    {
      "bufferView": 2,
      "byteOffset": 120720,
      "componentType": 5126,
      "count": 4358,
      "max": [
        1.6307746171951294,
        0.07957464456558228,
        0.48910951614379883
      ],
      "min": [
        -1.7165831327438354,
        -0.056331515312194824,
        -3.5975987911224365
      ],
      "type": "VEC3"
    },
    {
      "bufferView": 2,
      "byteOffset": 173016,
      "componentType": 5126,
      "count": 4358,
      "max": [
        1.0,
        1.0,
        1.0
      ],
      "min": [
        -1.0,
        -1.0,
        -1.0
      ],
      "type": "VEC3"
    },
    {
      "bufferView": 1,
      "byteOffset": 40240,
      "componentType": 5126,
      "count": 4358,
      "max": [
        0.8355219960212708,
        0.5992659330368042
      ],
      "min": [
        0.1467694342136383,
        -0.24128955602645874
      ],
      "type": "VEC2"
    },
    {
      "bufferView": 0,
      "byteOffset": 98304,
      "componentType": 5125,
      "count": 18336,
      "type": "SCALAR"
    },
    {
      "bufferView": 2,
      "byteOffset": 225312,
      "componentType": 5126,
      "count": 300,
      "max": [
        0.5272337198257446,
        0.02599388360977173,
        0.6963682174682617
      ],
      "min": [
        -0.5272337198257446,
        -0.04067283868789673,
        0.5204933881759644
      ],
      "type": "VEC3"
    },
    {
      "bufferView": 2,
      "byteOffset": 228912,
      "componentType": 5126,
      "count": 300,
      "max": [
        0.9989987015724182,
        0.9998420476913452,
        0.9982002377510071
      ],
      "min": [
        -0.9989987015724182,
        -0.9998420476913452,
        -0.9999741315841675
      ],
      "type": "VEC3"
    },
    {
      "bufferView": 1,
      "byteOffset": 75104,
      "componentType": 5126,
      "count": 300,
      "max": [
        0.6077795028686523,
        0.6402640342712402
      ],
      "min": [
        0.39222052693367004,
        0.49375444650650024
      ],
      "type": "VEC2"
    },
    {
      "bufferView": 0,
      "byteOffset": 171648,
      "componentType": 5125,
      "count": 1056,
      "type": "SCALAR"
    },
    {
      "bufferView": 2,
      "byteOffset": 232512,
      "componentType": 5126,
      "count": 316,
      "max": [
        0.23223769664764404,
        0.1552795171737671,
        -0.6580480933189392
      ],
      "min": [
        -0.2322375625371933,
        -0.12256941199302673,
        -1.7678296566009521
      ],
      "type": "VEC3"
    },
    {
      "bufferView": 2,
      "byteOffset": 236304,
      "componentType": 5126,
      "count": 316,
      "max": [
        1.0,
        1.0,
        1.0
      ],
      "min": [
        -1.0,
        -1.0,
        -1.0
      ],
      "type": "VEC3"
    },
    {
      "bufferView": 1,
      "byteOffset": 77504,
      "componentType": 5126,
      "count": 316,
      "max": [
        0.544289767742157,
        0.5143502354621887
      ],
      "min": [
        0.4557102620601654,
        0.13873058557510376
      ],
      "type": "VEC2"
    },
    {
      "bufferView": 0,
      "byteOffset": 175872,
      "componentType": 5125,
      "count": 1344,
      "type": "SCALAR"
    }
  ],
  "asset": {
    "extras": {
      "author": "AmieChairez (https://sketchfab.com/AmiesChairezJR)",
      "license": "CC-BY-4.0 (http://creativecommons.org/licenses/by/4.0/)",
      "source": "https://sketchfab.com/3d-models/scene-gltf-gingerbread-man-8614b47b5bc546e6971619b6281a2c8f",
      "title": "scene_gltf Gingerbread Man"
    },
    "generator": "Sketchfab-15.8.0",
    "version": "2.0"
  },
  "bufferViews": [
    {
      "buffer": 0,
      "byteLength": 181248,
      "name": "floatBufferViews",
      "target": 34963
    },
    {
      "buffer": 0,
      "byteLength": 80032,
      "byteOffset": 181248,
      "byteStride": 8,
      "name": "floatBufferViews",
      "target": 34962
    },
    {
      "buffer": 0,
      "byteLength": 240096,
      "byteOffset": 261280,
      "byteStride": 12,
      "name": "floatBufferViews",
      "target": 34962
    }
  ],
  "buffers": [
    {
      "byteLength": 501376,
      "uri": "scene.bin"
    }
  ],
  "extensionsUsed": [
    "KHR_materials_specular"
  ],
  "images": [
    {
      "uri": "textures/material_0_baseColor.png"
    },
    {
      "uri": "textures/material_4_baseColor.jpeg"
    }
  ],
  "materials": [
    {
      "doubleSided": true,
      "name": "material_0",
      "pbrMetallicRoughness": {
        "baseColorTexture": {
          "index": 0
        },
        "roughnessFactor": 0.1908546768904439
      }
    },
    {
      "doubleSided": true,
      "name": "material_1",
      "pbrMetallicRoughness": {
        "baseColorFactor": [
          0.9136978443225868,
          0.0,
          0.0,
          1.0
        ],
        "roughnessFactor": 0.2761882702880619
      }
    },
    {
      "doubleSided": true,
      "extensions": {
        "KHR_materials_specular": {
          "specularColorFactor": [
            1.0,
            1.0,
            1.0
          ],
          "specularFactor": 1.0
        }
      },
      "name": "material_2",
      "pbrMetallicRoughness": {
        "baseColorFactor": [
          0.5911740904520993,
          0.6219836946668877,
          0.39308805288473003,
          1.0
        ],
        "roughnessFactor": 0.37980763369945514
      }
    },
    {
      "doubleSided": true,
      "name": "material_3",
      "pbrMetallicRoughness": {
        "baseColorFactor": [
          0.14998649581912055,
          0.3674244560172938,
          0.39335679494280273,
          1.0
        ],
        "roughnessFactor": 0.3310455803293877
      }
    },
    {
      "doubleSided": true,
      "name": "material_4",
      "pbrMetallicRoughness": {
        "baseColorTexture": {
          "index": 1
        },
        "roughnessFactor": 0.17866416354792702
      }
    }
  ],
  "meshes": [
    {
      "name": "Object_0",
      "primitives": [
        {
          "attributes": {
            "NORMAL": 1,
            "POSITION": 0,
            "TEXCOORD_0": 2
          },
          "indices": 3,
          "material": 0,
          "mode": 4
        }
      ]
    },
    {
      "name": "Object_1",
      "primitives": [
        {
          "attributes": {
            "NORMAL": 5,
            "POSITION": 4,
            "TEXCOORD_0": 6
          },
          "indices": 7,
          "material": 1,
          "mode": 4
        }
      ]
    },
    {
      "name": "Object_2",
      "primitives": [
        {
          "attributes": {
            "NORMAL": 9,
            "POSITION": 8,
            "TEXCOORD_0": 10
          },
          "indices": 11,
          "material": 2,
          "mode": 4
        }
      ]
    },
    {
      "name": "Object_3",
      "primitives": [
        {
          "attributes": {
            "NORMAL": 13,
            "POSITION": 12,
            "TEXCOORD_0": 14
          },
          "indices": 15,
          "material": 3,
          "mode": 4
        }
      ]
    },
    {
      "name": "Object_4",
      "primitives": [
        {
          "attributes": {
            "NORMAL": 17,
            "POSITION": 16,
            "TEXCOORD_0": 18
          },
          "indices": 19,
          "material": 4,
          "mode": 4
        }
      ]
    }
  ],
  "nodes": [
    {
      "children": [
        1
      ],
      "matrix": [
        1.0,
        0.0,
        0.0,
        0.0,
        0.0,
        2.220446049250313e-16,
        -1.0,
        0.0,
        0.0,
        1.0,
        2.220446049250313e-16,
        0.0,
        0.0,
        0.0,
        0.0,
        1.0
      ],
      "name": "Sketchfab_model"
    },
    {
      "children": [
        2
      ],
      "name": "root"
    },
    {
      "children": [
        3
      ],
      "matrix": [
        1.0,
        0.0,
        0.0,
        0.0,
        0.0,
        2.220446049250313e-16,
        1.0,
        0.0,
        0.0,
        -1.0,
        2.220446049250313e-16,
        0.0,
        0.0,
        0.0,
        0.0,
        1.0
      ],
      "name": "GLTF_SceneRootNode"
    },
    {
      "children": [
        4
      ],
      "matrix": [
        1.0,
        -0.0,
        0.0,
        0.0,
        0.0,
        0.0,
        -1.0,
        0.0,
        0.0,
        1.0,
        0.0,
        0.0,
        0.0,
        0.0,
        0.0,
        1.0
      ],
      "name": "Sketchfab_model_0"
    },
    {
      "children": [
        5
      ],
      "matrix": [
        0.009999999776482582,
        0.0,
        0.0,
        0.0,
        0.0,
        0.0,
        0.009999999776482582,
        0.0,
        0.0,
        -0.009999999776482582,
        0.0,
        0.0,
        0.0,
        0.0,
        0.0,
        1.0
      ],
      "name": "a410339ff65b4223a2344c9fcc3b1042.fbx_1"
    },
    {
      "children": [
        6
      ],
      "name": "RootNode_2"
    },
    {
      "children": [
        7,
        9,
        11,
        13,
        15
      ],
      "matrix": [
        100.0,
        0.0,
        0.0,
        0.0,
        0.0,
        -1.685873969314855e-05,
        -99.99999999999858,
        0.0,
        0.0,
        99.99999999999858,
        -1.685873969314855e-05,
        0.0,
        5.898376684854156e-07,
        136.89593505859375,
        85.7531967163086,
        1.0
      ],
      "name": "Vert.002_3"
    },
    {
      "children": [
        8
      ],
      "name": "Vert.002_Material.002_0_4"
    },
    {
      "mesh": 0,
      "name": "Object_8"
    },
    {
      "children": [
        10
      ],
      "name": "Vert.002_Material.004_0_5"
    },
    {
      "mesh": 1,
      "name": "Object_10"
    },
    {
      "children": [
        12
      ],
      "name": "Vert.002_Material.006_0_6"
    },
    {
      "mesh": 2,
      "name": "Object_12"
    },
    {
      "children": [
        14
      ],
      "name": "Vert.002_Material.005_0_7"
    },
    {
      "mesh": 3,
      "name": "Object_14"
    },
    {
      "children": [
        16
      ],
      "name": "Vert.002_Material.003_0_8"
    },
    {
      "mesh": 4,
      "name": "Object_16"
    }
  ],
  "samplers": [
    {
      "magFilter": 9729,
      "minFilter": 9987,
      "wrapS": 10497,
      "wrapT": 10497
    }
  ],
  "scene": 0,
  "scenes": [
    {
      "name": "Sketchfab_Scene",
      "nodes": [
        0
      ]
    }
  ],
  "textures": [
    {
      "sampler": 0,
      "source": 0
    },
    {
      "sampler": 0,
      "source": 1
    }
  ]
}
